<?xml version="1.0" standalone="no"?>
<!DOCTYPE svg PUBLIC "-//W3C//DTD SVG 20010904//EN"
 "http://www.w3.org/TR/2001/REC-SVG-20010904/DTD/svg10.dtd">
<svg version="1.0" xmlns="http://www.w3.org/2000/svg"
 width="300.000000pt" height="300.000000pt" viewBox="0 0 300.000000 300.000000"
 preserveAspectRatio="xMidYMid meet">
<metadata>
Created by potrace 1.11, written by Peter Selinger 2001-2013
</metadata>
<g transform="translate(0.000000,300.000000) scale(0.100000,-0.100000)"
fill="#000000" stroke="none">
<path d="M753 2639 c-87 -20 -115 -50 -237 -253 -53 -88 -96 -161 -96 -162 0
-2 -50 -83 -111 -181 -61 -98 -117 -189 -125 -203 -8 -14 -22 -37 -32 -52
-126 -197 -144 -232 -147 -284 -3 -41 2 -64 23 -106 14 -29 28 -55 31 -58 11
-10 71 -111 71 -121 0 -5 3 -9 8 -9 4 0 12 -10 18 -23 28 -59 458 -746 484
-774 62 -67 66 -68 371 -71 399 -3 411 4 299 186 -33 53 -64 104 -69 112 -5 8
-120 195 -255 416 l-245 400 10 40 c5 21 11 46 14 56 5 24 32 74 89 166 28 45
56 90 61 100 20 35 359 588 390 637 77 119 85 153 41 178 -22 13 -538 18 -593
6z"/>
<path d="M1670 2640 c-14 -3 -30 -16 -36 -29 -14 -27 -1 -61 57 -151 36 -56
491 -789 512 -825 7 -11 20 -32 29 -46 22 -33 25 -101 8 -153 -6 -21 -105
-189 -219 -374 -352 -573 -391 -639 -391 -654 0 -9 8 -26 19 -39 l19 -23 298
-1 299 0 45 27 c61 36 76 54 160 198 40 69 131 219 202 333 71 115 137 222
146 237 9 16 50 82 90 148 80 132 96 174 88 233 -7 50 15 12 -309 539 -348
566 -318 522 -380 555 l-51 29 -281 1 c-155 0 -292 -2 -305 -5z"/>
</g>
</svg>
